<mxfile host="app.diagrams.net" modified="2021-10-22T19:30:29.133Z" agent="5.0 (Windows NT 10.0; Win64; x64) AppleWebKit/537.36 (KHTML, like Gecko) Chrome/93.0.4577.82 YaBrowser/21.9.1.684 Yowser/2.5 Safari/537.36" etag="Lns48iuFy8DP0udPYgKq" version="15.5.4" type="github">
  <diagram id="RmSQHdt5ej1oo-CZaMIL" name="Page-1">
    <mxGraphModel dx="1054" dy="585" grid="1" gridSize="10" guides="1" tooltips="1" connect="1" arrows="1" fold="1" page="1" pageScale="1" pageWidth="827" pageHeight="1169" math="0" shadow="0">
      <root>
        <mxCell id="0" />
        <mxCell id="1" parent="0" />
        <mxCell id="umeivOy3VReTgN2AVx2t-5" style="edgeStyle=orthogonalEdgeStyle;rounded=0;orthogonalLoop=1;jettySize=auto;html=1;entryX=0.5;entryY=0;entryDx=0;entryDy=0;" edge="1" parent="1" source="umeivOy3VReTgN2AVx2t-1" target="umeivOy3VReTgN2AVx2t-3">
          <mxGeometry relative="1" as="geometry" />
        </mxCell>
        <mxCell id="umeivOy3VReTgN2AVx2t-6" style="edgeStyle=orthogonalEdgeStyle;rounded=0;orthogonalLoop=1;jettySize=auto;html=1;entryX=0.5;entryY=0;entryDx=0;entryDy=0;" edge="1" parent="1" source="umeivOy3VReTgN2AVx2t-1" target="umeivOy3VReTgN2AVx2t-4">
          <mxGeometry relative="1" as="geometry" />
        </mxCell>
        <mxCell id="umeivOy3VReTgN2AVx2t-7" style="edgeStyle=orthogonalEdgeStyle;rounded=0;orthogonalLoop=1;jettySize=auto;html=1;entryX=0.5;entryY=0;entryDx=0;entryDy=0;" edge="1" parent="1" source="umeivOy3VReTgN2AVx2t-1" target="umeivOy3VReTgN2AVx2t-2">
          <mxGeometry relative="1" as="geometry" />
        </mxCell>
        <mxCell id="umeivOy3VReTgN2AVx2t-1" value="StartUI" style="ellipse;whiteSpace=wrap;html=1;aspect=fixed;" vertex="1" parent="1">
          <mxGeometry x="360" y="50" width="80" height="80" as="geometry" />
        </mxCell>
        <mxCell id="umeivOy3VReTgN2AVx2t-2" value="Scanner" style="ellipse;whiteSpace=wrap;html=1;aspect=fixed;" vertex="1" parent="1">
          <mxGeometry x="190" y="200" width="80" height="80" as="geometry" />
        </mxCell>
        <mxCell id="umeivOy3VReTgN2AVx2t-8" style="edgeStyle=orthogonalEdgeStyle;rounded=0;orthogonalLoop=1;jettySize=auto;html=1;" edge="1" parent="1" source="umeivOy3VReTgN2AVx2t-3" target="umeivOy3VReTgN2AVx2t-4">
          <mxGeometry relative="1" as="geometry" />
        </mxCell>
        <mxCell id="umeivOy3VReTgN2AVx2t-3" value="Tracker" style="ellipse;whiteSpace=wrap;html=1;aspect=fixed;" vertex="1" parent="1">
          <mxGeometry x="360" y="210" width="80" height="80" as="geometry" />
        </mxCell>
        <mxCell id="umeivOy3VReTgN2AVx2t-4" value="Item" style="ellipse;whiteSpace=wrap;html=1;aspect=fixed;" vertex="1" parent="1">
          <mxGeometry x="540" y="210" width="80" height="80" as="geometry" />
        </mxCell>
      </root>
    </mxGraphModel>
  </diagram>
</mxfile>
